<svg t="1612666793816" class="icon" viewBox="0 0 1024 1024" version="1.1" xmlns="http://www.w3.org/2000/svg" p-id="3098"><defs><style type="text/css"></style></defs><path d="M834.713 169.904c-40.813-40.5-87.519-71.366-137.233-93.592 76.732 169.094 45.631 374.657-94.352 513.566-139.956 138.935-347.064 169.802-517.44 93.644 22.384 49.323 53.485 95.661 94.299 136.187 180.796 179.436 473.904 179.436 654.726 0 180.797-179.461 180.797-470.369 0-649.805zM490.503 452.54l-26.965-27.776 3.09 38.144-35.369 16.44 38.117 8.928 5.079 37.934 20.446-32.646 38.563 7.016-25.473-29.085 18.692-33.642-36.18 14.687z m-207.525-53.328l91.419-86.184 113.777 53.956-54.35-112.938 86.864-90.712-125.008 16.388-60.108-110.007-22.907 123.07-124.013 22.724 110.87 59.664-16.544 124.039z m-42.281 215.799l30.787-48.956 57.936 10.498-38.301-43.615 28.144-50.448-54.428 22.018-40.552-41.705 4.66 57.229-53.197 24.688 57.307 13.377 7.644 56.914z" fill="#1296db" p-id="3099"></path></svg>