<svg t="1612665555916" class="icon" viewBox="0 0 1024 1024" version="1.1" xmlns="http://www.w3.org/2000/svg" p-id="2335"><defs><style type="text/css"></style></defs><path d="M953.54755863 720.1607274a164.24189911 164.24189911 0 0 0-135.93058834 170.412313A164.60486465 164.60486465 0 0 0 620.88965687 985.30704188a164.42338187 164.42338187 0 0 0-217.77931374 0 162.24558873 162.24558873 0 0 0-45.37069038-61.7041389 163.33448531 163.33448531 0 0 1 209.06814121 7.25931045 164.60486465 164.60486465 0 0 1 151.71958857-100.90441537c50.08924216 0 44.6447593 15.42603472 44.64475932-2.54075867a163.33448531 163.33448531 0 0 1 136.11207111-161.70114044A164.60486465 164.60486465 0 0 1 947.5586275 453.01810253a164.7863474 164.7863474 0 0 1-60.25227681-185.4753822A163.33448531 163.33448531 0 0 0 953.54755863 294.22068626 164.60486465 164.60486465 0 0 0 1002.00345593 507.46293097a164.60486465 164.60486465 0 0 0-48.4558973 212.69779643z" fill="#FD7504" p-id="2336"></path><path d="M899.10273019 665.71589895a164.24189911 164.24189911 0 0 0-135.93058834 170.412313A164.60486465 164.60486465 0 0 0 566.44482844 930.86221343a163.33448531 163.33448531 0 0 0-209.0681412-7.25931045 163.33448531 163.33448531 0 0 0-106.3488982-39.20027648c-50.08924216 0-44.6447593 15.42603472-44.64475933-2.54075865a163.33448531 163.33448531 0 0 0-78.76351847-140.10469186C58.29309637 699.47169258 64.82647578 745.20534846 82.24882088 693.48276145A164.7863474 164.7863474 0 0 0 21.99654407 507.46293097 164.96783017 164.96783017 0 0 0 70.45244137 294.22068626a164.24189911 164.24189911 0 0 0 135.93058834-170.412313A164.60486465 164.60486465 0 0 0 403.11034313 29.61882005a163.33448531 163.33448531 0 0 0 209.06814119 7.25931046c13.6112071-9.61858634 4.53706903-11.79637949 20.32606927 14.88158645A164.7863474 164.7863474 0 0 0 772.79072821 130.88620095c50.08924216 0 44.6447593-15.42603472 44.64475931 2.54075865a165.33079569 165.33079569 0 0 0 69.87086317 134.47872624A164.7863474 164.7863474 0 0 0 947.5586275 453.01810253a164.60486465 164.60486465 0 0 0-48.45589731 212.69779642z" fill="#FD8F07" p-id="2337"></path><path d="M838.66897062 507.46293097C838.66897062 820.52069448 439.40689542 953.18459309 251.75372008 704.55320987c210.33852054 160.06779561 523.39628402 12.34082778 523.39628402-260.60924541a325.58007405 325.58007405 0 0 0-66.05972515-196.72731344A326.66897062 326.66897062 0 0 1 838.66897062 507.46293097z" fill="#FDA736" p-id="2338"></path><path d="M775.1500041 443.94396446c0 272.22414218-313.05776351 420.67704105-523.39628402 260.60924541a330.66159138 330.66159138 0 0 1-47.18551797-86.20431165C109.83420061 352.29516992 372.98420472 100.57857979 631.23417428 203.47930552a314.5096256 314.5096256 0 0 1 77.6746219 43.7373455 324.854143 324.854143 0 0 1 66.24120792 196.72731344z" fill="#FED370" p-id="2339"></path><path d="M187.50882252 629.23786389A344.81724677 344.81724677 0 0 1 531.23717272 167.18275323a18.14827614 18.14827614 0 0 1-2.17779313 36.29655229 308.52069448 308.52069448 0 1 0 176.21976135 548.25942235 18.14827614 18.14827614 0 0 1 22.86682794 28.3113108 344.81724677 344.81724677 0 0 1-540.63714636-150.81217478zM752.28317616 705.27914094c143.00841603-176.76420965 47.36700075-437.19197234-156.43814039-490.00345591a18.14827614 18.14827614 0 0 1 9.07413809-35.20765572C834.13190159 239.77585782 940.4807998 530.14827614 780.59448695 728.14596888a18.14827614 18.14827614 0 0 1-28.31131079-22.86682794z" fill="#35214C" p-id="2340"></path><path d="M512 784.22414218a272.22414218 272.22414218 0 0 1-272.22414218-272.22414218 18.14827614 18.14827614 0 0 1 36.29655229 0 235.92758989 235.92758989 0 0 0 235.92758989 235.92758989 18.14827614 18.14827614 0 0 1 0 36.29655229zM766.07586606 530.14827614c-33.57431087 0-1.99631038-44.10031103-44.10031106-125.40458815A235.92758989 235.92758989 0 0 0 512 276.07241011a18.14827614 18.14827614 0 0 1 0-36.29655229 272.22414218 272.22414218 0 0 1 272.22414218 272.22414218 18.14827614 18.14827614 0 0 1-18.14827612 18.14827614z" fill="#FD8F07" p-id="2341"></path><path d="M620.88965687 1007.99238707c-15.60751749 0-25.77055213-26.49648316-77.13017361-37.74841439a18.14827614 18.14827614 0 0 1 7.98524149-36.29655231 186.20131325 186.20131325 0 0 1 62.79303545 27.22241423 181.48276145 181.48276145 0 0 1 185.1124167-89.10803586 181.48276145 181.48276145 0 0 1 127.03793302-160.6122439 182.75314079 182.75314079 0 0 1 45.73365587-199.6310376 183.47907184 183.47907184 0 0 1-52.26703529-87.47469104 18.14827614 18.14827614 0 0 1 35.20765572-9.07413804 146.27510574 146.27510574 0 0 0 56.0781733 81.84872538 18.14827614 18.14827614 0 0 1 0 29.40020738 146.4565885 146.4565885 0 0 0-43.01141447 189.2865202 18.14827614 18.14827614 0 0 1-12.88527606 26.67796593 145.18620917 145.18620917 0 0 0-120.86751912 151.35662305 18.14827614 18.14827614 0 0 1-23.04831071 18.14827616 146.63807125 146.63807125 0 0 0-174.94938205 84.38948406 18.14827614 18.14827614 0 0 1-15.78900024 11.61489675zM70.45244137 401.83996379a145.18620917 145.18620917 0 0 0-15.970483-93.82658767 18.14827614 18.14827614 0 0 1 12.88527608-26.67796594A145.18620917 145.18620917 0 0 0 188.23475355 130.88620095a18.14827614 18.14827614 0 0 1 23.04831072-18.14827614 146.63807125 146.63807125 0 0 0 174.94938204-84.38948408 18.14827614 18.14827614 0 0 1 28.6742763-6.53337942 146.4565885 146.4565885 0 0 0 194.18655478 0 18.14827614 18.14827614 0 0 1 28.6742763 6.53337942A146.27510574 146.27510574 0 0 0 812.71693573 112.73792481a18.14827614 18.14827614 0 0 1 23.04831072 18.14827614 145.18620917 145.18620917 0 0 0 120.8675191 151.35662306 18.14827614 18.14827614 0 0 1 12.88527608 26.67796593 147.72696783 147.72696783 0 0 0-15.78900025 44.46327654 18.14827614 18.14827614 0 0 1-36.29655231-6.53337941 170.23083023 170.23083023 0 0 1 10.34451743-34.48172467 181.48276145 181.48276145 0 0 1-127.03793303-160.61224387 181.48276145 181.48276145 0 0 1-185.11241668-89.10803588 182.93462355 182.93462355 0 0 1-205.43848596 0 181.48276145 181.48276145 0 0 1-185.11241669 89.10803588 181.48276145 181.48276145 0 0 1-127.03793303 160.61224387 180.03089935 180.03089935 0 0 1 9.80006914 96.5488291 18.14827614 18.14827614 0 0 1-37.38544888-7.07782771zM403.11034313 1007.99238707a18.14827614 18.14827614 0 0 1-16.69641407-11.07044846 146.27510574 146.27510574 0 0 0-174.94938204-84.38948407 18.14827614 18.14827614 0 0 1-23.04831072-18.14827616 145.18620917 145.18620917 0 0 0-121.04900185-151.71958856 18.14827614 18.14827614 0 0 1-12.88527608-26.67796594 146.819554 146.819554 0 0 0-43.01141446-189.28652019 18.14827614 18.14827614 0 0 1 0-29.40020738 149.17882991 149.17882991 0 0 0 34.66320744-36.29655227A18.14827614 18.14827614 0 0 1 76.4413725 482.59979265 169.86786473 169.86786473 0 0 1 50.48933761 512a182.93462355 182.93462355 0 0 1 45.73365589 199.6310376 181.48276145 181.48276145 0 0 1 127.94534684 160.61224387 181.48276145 181.48276145 0 0 1 185.11241668 89.10803588 186.20131325 186.20131325 0 0 1 62.79303547-27.2224142 18.14827614 18.14827614 0 0 1 7.9852415 36.29655228c-51.35962151 11.07044844-60.97820786 37.56693162-76.94869086 37.56693164z" fill="#35214C" p-id="2342"></path></svg>