<svg xmlns="http://www.w3.org/2000/svg" data-name="Layer 1" width="977.45283" height="657.62715" viewBox="0 0 977.45283 657.62715" xmlns:xlink="http://www.w3.org/1999/xlink"><path d="M176.55848,256.16236c-2.4741,10.86969-3.65,23.19284,2.949,32.92a22.60007,22.60007,0,0,0,11.69787,8.86176,33.19417,33.19417,0,0,0,14.9065.91559c11.25543-1.55939,21.25863-7.42215,32.32809-9.69834,4.88493-1.00448,10.06918-1.33648,14.77168.59668,3.52347,1.44849,7.23465,4.36063,7.25156,8.51474.01736,4.26581-3.68759,7.09708-7.37228,8.40863-4.91665,1.75006-10.02625,1.07273-15.126.85214-5.49245-.23757-11.09305.2591-15.65585,3.62278a27.22958,27.22958,0,0,0-8.70142,11.79727c-2.29343,5.5661-3.22429,11.55035-4.69077,17.35773a77.07254,77.07254,0,0,1-5.5323,15.12564,78.35215,78.35215,0,0,1-19.14375,24.81466c-3.93926,3.39017-8.72569,6.84394-14.10564,7.15467-4.1496.23965-9.19371-1.50406-10.79318-5.707a8.19476,8.19476,0,0,1,3.83658-9.72919c3.55623-1.79453,7.42915.76541,8.57757,4.279a5.47724,5.47724,0,0,1-.57066,4.93909c-1.07829,1.60788,1.51933,3.11129,2.59041,1.51416,2.48685-3.70822,1.187-8.69547-1.85866-11.66587a8.737,8.737,0,0,0-11.499-.857,11.36119,11.36119,0,0,0-4.15311,11.73953c1.2793,4.61661,5.81561,7.5531,10.34564,8.28061,5.5941.89838,10.97782-1.3002,15.49346-4.4765a69.4524,69.4524,0,0,0,12.26916-11.333,81.43951,81.43951,0,0,0,16.24639-29.04895c3.30206-10.58121,3.54225-24.55936,13.354-31.70535,5.04883-3.67713,11.2352-3.26929,17.15486-2.93176,5.22556.298,10.32314.2438,15.117-2.12186,3.95837-1.95337,7.15207-5.5589,7.21811-10.15244.06665-4.6372-3.22568-8.3659-7.10486-10.4786-10.24788-5.58118-22.55427-1.08-32.622,2.64874-10.12433,3.74972-21.68376,8.15073-32.4433,4.20477A20.12461,20.12461,0,0,1,180.176,284.18183c-2.60542-5.52533-2.97614-11.79462-2.37425-17.791a77.42629,77.42629,0,0,1,1.64958-9.43094c.42785-1.87971-2.46384-2.68225-2.89282-.79751Z" transform="translate(-106.42751 -120.52679)" fill="#3f3d56"/><path d="M335.84258,383.08207c-14.53414-1.14817,2.61588-10.76645,3.764-25.30057a26.39838,26.39838,0,1,1,52.63278,4.15784C391.09124,376.47345,350.37673,384.2302,335.84258,383.08207Z" transform="translate(-106.42751 -120.52679)" fill="#f0f0f0"/><path d="M475.3937,292.59717a26.3984,26.3984,0,0,1-24.23746-28.39529c1.14817-14.53414-27.71432-24.25652-13.18017-23.10837s66.96112,12.73207,65.813,27.26621a26.39837,26.39837,0,0,1-28.39533,24.23745Z" transform="translate(-106.42751 -120.52679)" fill="#f0f0f0"/><path d="M507.20541,259.46665c1.9154,3.97345.78619,8.56406-1.74341,11.9946-2.87723,3.902-7.4537,5.8255-12.14835,6.46121a37.39024,37.39024,0,0,1-15.02121-1.23691c-4.699-1.35617-9.57574-4.263-10.545-9.45608-.646-3.46122.83069-7.15494,4.425-8.11435a8.6548,8.6548,0,0,1,8.19351,2.2229c2.98453,3.10629,2.75736,8.092.86054,11.69992-2.23087,4.24338-6.69458,6.585-11.284,7.35773-5.45642.9187-10.93918-.36463-16.07224-2.19053-5.57907-1.98455-10.99112-4.45578-16.45749-6.72583-10.6603-4.42694-21.55007-8.58563-33.01385-10.34875-17.51212-2.69333-38.2955,1.50061-49.01578,16.85376-5.787,8.288-7.42642,18.68219-6.18088,28.57034,1.31354,10.42792,5.88919,20.01044,11.94794,28.49616a120.99411,120.99411,0,0,0,10.485,12.54715A8.64122,8.64122,0,0,1,373.63,357.0124c-3.32114,8.16018-16.59967,5.55957-17.589-2.85193-.44956-3.822,1.6828-7.7583,4.34723-10.35071a20.48842,20.48842,0,0,1,10.92715-5.29361c8.61615-1.43887,17.724,1.75577,24.31018,7.30478,7.44058,6.26889,11.6294,15.79553,13.83576,25.06952,2.512,10.55868,2.6401,21.41858,2.87881,32.21161.24426,11.04492.66416,22.22055,3.83283,32.881a81.25706,81.25706,0,0,0,11.77307,23.9577A84.8744,84.8744,0,0,0,470.2532,491.293a77.74384,77.74384,0,0,0,12.6575,2.96518c1.68127.24927,1.882-2.38345.20789-2.63165-18.72013-2.77539-35.93525-12.91116-48.25895-27.15811A80.49373,80.49373,0,0,1,420.4385,440.4296c-4.01883-10.59274-5.03793-21.84451-5.366-33.08691-.33508-11.482-.15261-23.06787-2.45138-34.37857-2.03223-9.99918-6.0185-20.12458-13.40088-27.41a34.24281,34.24281,0,0,0-25.02515-9.97174c-8.56357.3967-17.7203,5.11313-20.26513,13.85068a11.36378,11.36378,0,0,0,2.69549,11.54629,13.31346,13.31346,0,0,0,13.63294,2.8812,11.04447,11.04447,0,0,0,6.13192-13.51117,13.44135,13.44135,0,0,0-3.3103-5.0636c-7.72543-8.25036-14.81491-17.48291-18.66192-28.2258-3.5882-10.02014-4.32419-21.54669-.186-31.51706,7.83429-18.87545,30.57086-24.54709,49.09119-21.909,12.12051,1.7265,23.59689,6.31536,34.82428,11.00924,5.73318,2.39691,11.42941,5.0607,17.37542,6.89548,5.32361,1.64273,11.03623,2.46765,16.521,1.12036,4.78711-1.1759,9.18683-3.95923,11.50577-8.41177,2.10641-4.04447,2.46991-9.17658-.03513-13.13892-3.62176-5.72876-13.62207-7.01739-17.26626-.583-2.418,4.26941-1.23011,9.73648,1.94558,13.27735,3.5604,3.96979,8.89212,5.59125,13.99454,6.40964,9.64157,1.54641,21.51434.33111,26.67246-9.192a13.91186,13.91186,0,0,0,.7218-12.70227,1.3209,1.3209,0,0,0-2.37726,1.14874Z" transform="translate(-106.42751 -120.52679)" fill="#3f3d56"/><path d="M1078.06533,336.08207c14.53418-1.14817-2.61584-10.76645-3.764-25.30057a26.39839,26.39839,0,1,0-52.63281,4.15784h0C1022.81668,329.47345,1063.53127,337.2302,1078.06533,336.08207Z" transform="translate(-106.42751 -120.52679)" fill="#f0f0f0"/><path d="M938.51425,245.59717a26.3984,26.3984,0,0,0,24.23748-28.39531h0c-1.14813-14.53413,27.71436-24.25651,13.18018-23.10836s-66.96112,12.73207-65.813,27.2662a26.39834,26.39834,0,0,0,28.39533,24.23747Z" transform="translate(-106.42751 -120.52679)" fill="#f0f0f0"/><path d="M906.70254,212.46663c-1.91541,3.97344-.78619,8.56406,1.74341,11.9946,2.87726,3.902,7.45373,5.82552,12.14837,6.46123a37.3904,37.3904,0,0,0,15.02124-1.23689c4.699-1.35616,9.57575-4.263,10.545-9.45609.646-3.46119-.83069-7.15492-4.42493-8.11436a8.6548,8.6548,0,0,0-8.19348,2.22288c-2.98456,3.1063-2.75739,8.092-.86054,11.69992,2.2309,4.24337,6.69458,6.585,11.284,7.35773,5.45642.9187,10.93915-.36462,16.07221-2.19054,5.579-1.98455,10.99108-4.45579,16.45745-6.72581,10.66028-4.42694,21.55011-8.58565,33.01386-10.34876,17.51214-2.69334,38.29547,1.50061,49.01581,16.85376,5.78711,8.288,7.42639,18.68218,6.18091,28.57033-1.31348,10.42792-5.88916,20.01044-11.948,28.49616a121.00165,121.00165,0,0,1-10.485,12.54715,8.64136,8.64136,0,0,0-1.99475,9.41442c3.32117,8.16019,16.59973,5.55957,17.58911-2.85192.44959-3.822-1.68286-7.7583-4.34729-10.35071a20.48791,20.48791,0,0,0-10.92712-5.29361c-8.61621-1.43887-17.724,1.75577-24.31018,7.30478-7.44055,6.26889-11.6294,15.79553-13.83576,25.06952-2.512,10.55865-2.64013,21.41858-2.87878,32.21161-.24426,11.04492-.66412,22.22055-3.83283,32.881a81.25576,81.25576,0,0,1-11.77307,23.95773A84.87428,84.87428,0,0,1,943.65493,444.293a77.74276,77.74276,0,0,1-12.65747,2.96518c-1.68127.24927-1.882-2.38345-.20788-2.63165,18.72015-2.77539,35.93524-12.91116,48.25891-27.15811a80.49373,80.49373,0,0,0,14.42114-24.03882c4.01886-10.59274,5.0379-21.84451,5.366-33.08691.33508-11.482.15265-23.06787,2.45141-34.37857,2.03223-9.99918,6.0185-20.12458,13.40088-27.41a34.24269,34.24269,0,0,1,25.02509-9.97174c8.5636.3967,17.72033,5.11313,20.26513,13.85068a11.36375,11.36375,0,0,1-2.69543,11.54629,13.31343,13.31343,0,0,1-13.63293,2.8812,11.04451,11.04451,0,0,1-6.132-13.51117,13.44135,13.44135,0,0,1,3.3103-5.0636c7.72546-8.25036,14.81494-17.48291,18.662-28.2258,3.58825-10.02014,4.32422-21.54669.186-31.517-7.83423-18.87547-30.5708-24.54708-49.09118-21.909-12.12055,1.7265-23.59693,6.31539-34.82428,11.00926-5.73322,2.3969-11.42945,5.0607-17.37543,6.89548-5.32361,1.64272-11.0362,2.46764-16.521,1.12038-4.78711-1.17589-9.18683-3.95923-11.50573-8.41178-2.10645-4.04446-2.46991-9.17659.03515-13.13891,3.62177-5.72875,13.62207-7.0174,17.2663-.583,2.418,4.26942,1.2301,9.73646-1.94562,13.27732-3.56036,3.96978-8.89209,5.59124-13.99457,6.40963-9.64154,1.54641-21.51434.33111-26.67248-9.192a13.91182,13.91182,0,0,1-.7218-12.70225,1.3209,1.3209,0,0,1,2.37725,1.14873Z" transform="translate(-106.42751 -120.52679)" fill="#3f3d56"/><path d="M509.58035,554.55185c-25.34937-33.46283-15.29654-71.6549-30.1478-98.29858-56.91919-102.11609,13.16895-92.708,92.41061-72.84973l.18891,2.203c-50.43433,7.78317-83.60291,33.73993-91.0011,71.21393-5.74976,29.1236,4.80121,63.27106,29.70941,96.152Z" transform="translate(-106.42751 -120.52679)" fill="#f0f0f0"/><path d="M826.73947,528.65519l-.52955-2.1c28.29548-12.82874,25.86438-51.03876,51.17994-59.76416,192.84527-66.468,2.48584-73.96362-40.33191-109.1221-38.28992-31.44061-80.01941-67.99466-133.05274-86.821l.423-2.14334c53.265,18.90912,100.74682,49.90274,133.697,87.27176,33.11645,37.55628,47.62872,77.11249,40.863,111.38175C873.653,494.38157,855.58547,515.57749,826.73947,528.65519Z" transform="translate(-106.42751 -120.52679)" fill="#f0f0f0"/><ellipse cx="477.23923" cy="177.17399" rx="9.0029" ry="6.26289" fill="#e6e6e6"/><ellipse cx="534.38816" cy="191.26551" rx="9.00293" ry="6.26289" fill="#3f3d56"/><ellipse cx="454.53623" cy="221.79711" rx="9.0029" ry="6.26289" fill="#ff6584"/><ellipse cx="714.44639" cy="268.76884" rx="9.00293" ry="6.26291" fill="#e6e6e6"/><ellipse cx="771.59531" cy="282.86036" rx="9.00293" ry="6.26291" fill="#3f3d56"/><ellipse cx="691.74345" cy="313.39198" rx="9.00293" ry="6.26291" fill="#ff6584"/><ellipse cx="697.22343" cy="126.28796" rx="9.00293" ry="6.2629" fill="#e6e6e6"/><ellipse cx="754.37235" cy="140.37948" rx="9.00293" ry="6.26289" fill="#3f3d56"/><ellipse cx="674.52042" cy="170.91109" rx="9.00293" ry="6.26289" fill="#ff6584"/><ellipse cx="545.23002" cy="393.81968" rx="5.68982" ry="3.95816" fill="#e6e6e6"/><ellipse cx="581.34812" cy="402.7255" rx="5.68982" ry="3.95816" fill="#3f3d56"/><ellipse cx="530.88169" cy="422.02149" rx="5.68982" ry="3.95816" fill="#ff6584"/><ellipse cx="532.7042" cy="260.73313" rx="5.68982" ry="3.95816" fill="#e6e6e6"/><ellipse cx="568.8223" cy="269.63898" rx="5.68982" ry="3.95816" fill="#3f3d56"/><ellipse cx="518.35593" cy="288.93494" rx="5.68982" ry="3.95816" fill="#ff6584"/><ellipse cx="352.64594" cy="284.219" rx="5.68985" ry="3.95816" fill="#e6e6e6"/><ellipse cx="388.76408" cy="293.12482" rx="5.68985" ry="3.95816" fill="#3f3d56"/><ellipse cx="338.29765" cy="312.42081" rx="5.68985" ry="3.95816" fill="#ff6584"/><ellipse cx="796.52866" cy="183.2298" rx="5.68982" ry="3.95815" fill="#e6e6e6"/><ellipse cx="832.64683" cy="192.13564" rx="5.68982" ry="3.95815" fill="#3f3d56"/><ellipse cx="782.1804" cy="211.43162" rx="5.68982" ry="3.95815" fill="#ff6584"/><path d="M196.31068,289.25391a9.15747,9.15747,0,0,1,7.43492,11.912L241.385,375.91379l-16.03386,4.779-33.80733-73.7853a9.20709,9.20709,0,0,1,4.767-17.65357Z" transform="translate(-106.42751 -120.52679)" fill="#ffb6b6"/><path d="M257.52426,416.26267s4.66552-1.27911.05111-10.43124c-3.69418-7.327-22.02585-54.4329-29.66412-62.88553a7.194,7.194,0,0,0-.4755-8.80683l-19.232,13.8133c-.6105,5.33,1.81191,9.467,3.91756,9.38714l5.841,13.621L232.87524,417.76l21.293-.5129Z" transform="translate(-106.42751 -120.52679)" fill="#6c63ff"/><polygon points="145.084 321.167 146.958 338.549 145.855 361.341 196.34 355.343 201.084 321.167 195.04 321.227 145.084 321.167" fill="#ffb6b6"/><path d="M294.45394,385.55185l-19-15h0l-9.97369-.57989L250.681,379.4527l-12.40672,6.31775.21253,32.98786,14.26451,59.07153,51-2,6.713-42.12344s15.59515-20.94623-1.19962-32.94251Z" transform="translate(-106.42751 -120.52679)" fill="#6c63ff"/><polygon points="118.898 636.741 129.936 636.741 135.188 594.167 118.898 594.167 118.898 636.741" fill="#ffb6b6"/><path d="M221.72334,749.70792l17.634-1.05249v7.55518l16.76509,11.57855a4.71924,4.71924,0,0,1-2.68164,8.60272H232.44688l-3.61862-7.4732-1.41289,7.4732h-7.91554Z" transform="translate(-106.42751 -120.52679)" fill="#2f2e41"/><polygon points="180.898 636.741 191.936 636.741 197.188 594.167 180.898 594.167 180.898 636.741" fill="#ffb6b6"/><path d="M283.72332,749.70792l17.63394-1.05249v7.55518l16.76511,11.57855a4.71924,4.71924,0,0,1-2.68164,8.60272H294.44686l-3.61862-7.4732-1.41287,7.4732h-7.91553Z" transform="translate(-106.42751 -120.52679)" fill="#2f2e41"/><path d="M220.56324,720.55417h.12l2.12275-69.22332a18.10115,18.10115,0,0,1,.23751-17.10523l.30391-.55011-.788-3.65271a23.2666,23.2666,0,0,1,1.32959-14.00268l1.98032-64.57251c-7.07489-45.8512,26.6419-75.75357,26.6419-75.75357h50.50821L313.863,512.94986c7.16852,69.84052,5.8678,137.898-5.50763,203.83417l.31012.1568c1.11664.38544,1.59558,1.93231,1.07,3.4552s-1.85694,2.44489-2.9736,2.05945l-26.67414-.9278c-1.11667-.38537-1.59576-1.93231-1.07-3.4552.52558-1.52282,1.85694-2.44482,2.97361-2.05944l1.81369.91735-3.868-66.79791.42926-12.20105-.88431-13.84186L275.39337,561.829,259.9172,638.392l-15.80814,82.93274a2.908,2.908,0,0,1-1.9609,5.06348H220.56324a2.917,2.917,0,0,1,0-5.834Z" transform="translate(-106.42751 -120.52679)" fill="#2f2e41"/><path d="M295.32464,528.95438a9.15745,9.15745,0,0,0,.227-14.04l-4.80023-83.0845-17.701,3.80646,9.08612,80.6514a9.20708,9.20708,0,0,0,13.18814,12.66668Z" transform="translate(-106.42751 -120.52679)" fill="#ffb6b6"/><path d="M282.27191,388.56937s4.65689-1.31012,5.42318,8.9108c.61347,8.18262,9.20008,57.99515,7.0149,69.17618a7.194,7.194,0,0,1,4.13427,7.79062l-23.60089-1.91684c-3.27176-4.25177-3.32977-9.04541-1.48453-10.0629l-2.02-14.68228L260.38116,399.998l18.50769-10.54141Z" transform="translate(-106.42751 -120.52679)" fill="#6c63ff"/><circle cx="160.52215" cy="223.86501" r="23.87576" fill="#ffb8b8"/><path d="M215.499,394.56922q-7.57869-2.68593-15.15737-5.38156a15.25765,15.25765,0,0,1,3.28124-3.86194c4.81047-4.01685,11.45031-4.74277,17.55781-6.09781,6.11719-1.3551,12.757-4.133,14.993-9.97913,2.32295-6.07849-1.04535-12.64086-3.00055-18.83551-2.7392-8.64343-2.68112-18.29348.98729-26.57879,3.66835-8.28531,11.12126-15.0026,19.968-16.97711,8.84665-1.96488,18.84516,1.23889,24.28479,8.47888a14.97416,14.97416,0,0,1,18.02246,8.34338c1.268,3.17471,1.3067,6.998-.58072,9.8533s-5.92361,4.3169-8.96286,2.72953l1.7616-4.47174c-5.44934,1.84869-8.99185,11.702-8.25629,17.41265.72593,5.701,4.05555,10.69538,7.4336,15.351s6.97857,9.35965,8.43045,14.92514c2.09073,8.00461-.73563,16.75448-5.96228,23.17175-5.22672,6.41724-12.5925,10.77283-20.21964,13.97659a93.73251,93.73251,0,0,1-17.71271,5.459c1.084-2.11,2.15842-4.22006,3.24247-6.33011l-12.8635,7.782c-2.48753.242-4.99444.38718-7.50129.43558-7.298.12582-14.74117-.63885-21.4199-3.55222-6.68815-2.92309-12.56343-8.21759-14.9832-15.09939a19.56865,19.56865,0,0,1-1.08393-6.93021Q206.628,396.476,215.499,394.56922Z" transform="translate(-106.42751 -120.52679)" fill="#2f2e41"/><path d="M231.454,185.55185c0-33.13708-24.33756-65.02506-54.16094-65.02506s-53.83906,31.888-53.83906,65.02506c0,29.09681,18.64245,53.34974,43.37866,58.83289a43.74581,43.74581,0,0,0-2.37866,12.66711c0,9.11268,5.10708.47495,12.83906.47495s15.16094,8.63773,15.16094-.47495a44.28375,44.28375,0,0,0-2.53473-13.12481C213.73011,237.67246,231.454,213.91959,231.454,185.55185Z" transform="translate(-106.42751 -120.52679)" fill="#6c63ff"/><path d="M166.0559,245.76679l23.42975.52631c1.93124.04338,1.9307-2.95664,0-3l-23.42975-.52631C164.12466,242.72339,164.12519,245.72342,166.0559,245.76679Z" transform="translate(-106.42751 -120.52679)" fill="#3f3d56"/><path d="M405.45394,776.55185c-.76736,2.27271-298.19854,2.05909-299.02643-.208C107.1939,774.06559,404.62506,774.27921,405.45394,776.55185Z" transform="translate(-106.42751 -120.52679)" fill="#ccc"/><path d="M537.9343,537.17609c-13.86914-.85474-27.747-1.543-41.62848-2.16083-9.3543-.41638-18.71716-.75793-28.06024-1.38959-3.27887-.22174-6.55884-.4848-9.81988-.899-.855-.12549-1.71314-.26618-2.56415-.43976.12494-.15509.24835-.31146.37524-.465.67066-.8117,1.36054-1.60736,2.05994-2.39435,3.70056-4.16394,7.6192-8.13415,11.48175-12.14642,5.4455-5.65649,10.84869-11.35327,16.12085-17.17224q10.28265-11.349,19.9057-23.27216,2.72379-3.38011,5.391-6.80535,1.86621-2.3964,3.71362-4.80744.69681-.90948,1.38953-1.8219.32263-.4248.64435-.85034c.21075-.27863,1.13184-1.4856.46283-.62378q.59307-.76666,1.18512-1.53424.40073-.52094.79718-1.045.91-1.20648,1.78949-2.43561,1.58615-2.218,3.06463-4.51019a100.688,100.688,0,0,0,5.14594-8.94239c5.82208-11.4707,9.63373-24.15136,9.555-37.10162a58.105,58.105,0,0,0-8.66461-30.78558,52.31569,52.31569,0,0,0-23.0119-19.87482,62.22452,62.22452,0,0,0-17.29541-4.66217,66.19862,66.19862,0,0,0-17.42767.40015c-13.23591,1.83465-25.92859,7.48822-37.03046,14.78912-3.53882,2.32727-6.92139,4.87012-10.24622,7.49206-1.40509,1.108-2.19665,3.60517-2.19665,5.30329a7.63224,7.63224,0,0,0,2.19665,5.30328,7.54647,7.54647,0,0,0,5.30335,2.19672,8.73836,8.73836,0,0,0,5.30328-2.19672c.15393-.12134.30969-.2431.46478-.36523q.70212-.53394,1.41181-1.05841,1.49707-1.10578,3.027-2.166,3.03057-2.099,6.19256-3.99951a98.78249,98.78249,0,0,1,11.2851-5.82013,76.79816,76.79816,0,0,1,17.48327-4.88843,60.19977,60.19977,0,0,1,13.38929-.07977,51.17254,51.17254,0,0,1,11.457,3.10522,46.79094,46.79094,0,0,1,4.9038,2.58179q1.45881.88641,2.848,1.88117c.12957.09277.41815.30865.6654.49365q.35211.28609.69818.57959a44.70652,44.70652,0,0,1,4.72528,4.647q.5148.58749,1.00891,1.19281c.04956.06073.098.12232.14679.18372q.95371,1.2897,1.81635,2.64331a46.81437,46.81437,0,0,1,3.10943,5.78644A51.40936,51.40936,0,0,1,523.59238,400.47a60.09744,60.09744,0,0,1-.07586,13.34772,75.69765,75.69765,0,0,1-4.83283,17.28565,100.52081,100.52081,0,0,1-9.7207,17.19641q-.796,1.13946-1.61914,2.25976-.38506.52423-.77594,1.04425c-.101.1344-.43878.57642-.6225.81769-.40552.51843-.80408,1.03571-1.19989,1.55969q-.32355.42847-.64654.85749-.74826.99032-1.50122,1.97711-.63748.8356-1.27839,1.66864l-.01574.02051q-.2515.325-.50367.64935-1.352,1.7385-2.71868,3.46564-9.79542,12.37893-20.32807,24.1488c-5.46051,6.10712-11.06647,12.08063-16.7395,17.99017-4.07672,4.24671-8.21594,8.43982-12.18048,12.79248-2.80573,3.08033-5.82062,6.31086-7.78955,10.009-2.11127,3.96551-2.94916,8.73871-.34,12.72375,2.48682,3.7981,6.83026,5.54456,11.11334,6.43665a122.75033,122.75033,0,0,0,16.89008,1.93573c8.14734.53961,16.30927.85907,24.46588,1.21979,11.5614.51129,23.1214,1.05072,34.67578,1.70367q5.04355.285,10.08551.59607c3.92334.24182,7.67365-3.62238,7.5-7.5A7.674,7.674,0,0,0,537.9343,537.17609Z" transform="translate(-106.42751 -120.52679)" fill="#2f2e41"/><path d="M709.6038,389.47005a236.68929,236.68929,0,0,0-2.30969-28.20843,211.77551,211.77551,0,0,0-5.06787-25.49036,167.8245,167.8245,0,0,0-8.4671-24.28131,86.34614,86.34614,0,0,0-10.07831-17.71374c-4.01349-5.28308-8.62451-10.26624-14.55066-13.4408a28.703,28.703,0,0,0-8.14392-3.02667c-.39264-.07337-.78162-.12354-1.16852-.15906-.2702-.0462-.54486-.08374-.82532-.10889a53.31127,53.31127,0,0,0-24.77826,3.43982A55.51009,55.51009,0,0,0,613.735,294.85378a77.065,77.065,0,0,0-13.27686,21.17591,118.10254,118.10254,0,0,0-7.77655,26.3172,159.84248,159.84248,0,0,0-2.35412,29.22674,170.75367,170.75367,0,0,0,2.9823,29.42041,133.42785,133.42785,0,0,0,7.42657,25.65393A98.25388,98.25388,0,0,0,613.355,449.59872c5.22834,6.825,11.31525,12.91088,18.80432,17.25958a51.87621,51.87621,0,0,0,11.41138,4.90411,77.35716,77.35716,0,0,0,10.67029,2.69092,43.47341,43.47341,0,0,0,11.4458.42224,41.02913,41.02913,0,0,0,11.85107-3.17248c6.47821-2.80695,11.63672-7.72608,15.86194-13.27253a67.38034,67.38034,0,0,0,9.683-19.18542,122.77117,122.77117,0,0,0,5.21863-24.24963A177.5577,177.5577,0,0,0,709.6038,389.47005Zm-15.35241,15.56531q-.33307,5.13766-.99854,10.24585a110.66148,110.66148,0,0,1-4.6051,19.89136c-.48407,1.42139-1.01813,2.82483-1.58136,4.21655A55.77466,55.77466,0,0,1,681.0916,450.002l-.03205.043c-.23889.29644-.47638.59387-.72326.884q-.93741,1.10137-1.95472,2.13135-1.02328,1.033-2.12866,1.98c-.18787.16046-.38086.31445-.57367.46893-.09332.06775-.186.13641-.28027.20282a21.86588,21.86588,0,0,1-10.2569,4.20227,36.35242,36.35242,0,0,1-7.7262-.0611,50.27754,50.27754,0,0,1-6.75677-1.58776c-2.275-.70142-4.56256-1.382-6.7821-2.24738a46.00092,46.00092,0,0,1-6.95075-3.87579c-.592-.4018-1.17023-.82233-1.746-1.24671-.19183-.154-.3844-.30707-.5741-.46393q-1.813-1.49926-3.493-3.15026-1.6821-1.64841-3.23279-3.42389-.82068-.937-1.60553-1.90448c-.16253-.20014-.32214-.40247-.48242-.60443a80.89614,80.89614,0,0,1-5.48773-8.37684,99.71951,99.71951,0,0,1-4.915-9.87884,133.345,133.345,0,0,1-7.5943-25.97339c-.4494-2.374-.83111-4.76-1.16962-7.15228a159.35766,159.35766,0,0,1-.91839-31.50318c.19726-2.75885.48273-5.51031.83435-8.2536a120.66636,120.66636,0,0,1,5.23395-22.16345c.61462-1.78278,1.28936-3.54382,2.00543-5.28815a74.85752,74.85752,0,0,1,8.34973-14.65515c.04071-.05493.10254-.13684.17041-.22644l.04468-.05615q.704-.87882,1.44134-1.73047,1.33557-1.54165,2.78174-2.98285,1.49212-1.4838,3.102-2.84253c.23749-.2.70221-.56146,1.041-.82342.29589-.21814.58825-.4411.89026-.65149a36.494,36.494,0,0,1,16.77984-6.65888,52.86955,52.86955,0,0,1,9.53461-.16015,21.412,21.412,0,0,1,2.39282.70874,28.54981,28.54981,0,0,1,4.51959,2.68408c.05567.04553.11225.09.16748.13605q.64893.542,1.27185,1.11407c.88068.80731,1.72339,1.6557,2.53211,2.53485.79816.86762,1.56024,1.76782,2.29571,2.68891.09394.12548.18854.25048.28131.37689q.58311.79458,1.1413,1.60705a79.62747,79.62747,0,0,1,4.46069,7.35c1.46259,2.713,2.78443,5.499,4.01014,8.32642a176.62545,176.62545,0,0,1,10.1687,35.39563c.62646,3.37023,1.16223,6.75647,1.63318,10.15185A207.82138,207.82138,0,0,1,694.25139,405.03536Z" transform="translate(-106.42751 -120.52679)" fill="#2f2e41"/><path d="M851.84982,537.17611c-13.86914-.85474-27.747-1.543-41.62848-2.16083-9.35431-.41638-18.71716-.75794-28.06024-1.38959-3.27887-.22174-6.55884-.4848-9.81988-.899-.85505-.12549-1.71314-.26618-2.56415-.43976.12494-.15509.24835-.31147.37524-.465.67066-.81171,1.36054-1.60736,2.05994-2.39435,3.70056-4.16394,7.6192-8.13415,11.48175-12.14642,5.44549-5.6565,10.84869-11.35327,16.12085-17.17224q10.28265-11.349,19.9057-23.27216,2.72379-3.38013,5.391-6.80536,1.86621-2.39638,3.71362-4.80743.69681-.90948,1.38953-1.8219.32263-.4248.64435-.85034c.21075-.27863,1.13183-1.4856.46283-.62378q.59307-.76666,1.18512-1.53424.40073-.52094.79718-1.045.91-1.20648,1.78949-2.4356,1.58614-2.218,3.06463-4.5102a100.68639,100.68639,0,0,0,5.14594-8.94238c5.82208-11.4707,9.63373-24.15137,9.555-37.10162a58.10507,58.10507,0,0,0-8.66461-30.78559,52.31573,52.31573,0,0,0-23.0119-19.87481,62.22427,62.22427,0,0,0-17.29541-4.66217,66.19871,66.19871,0,0,0-17.42768.40014c-13.2359,1.83466-25.92858,7.48822-37.03045,14.78913-3.53882,2.32727-6.92139,4.87011-10.24622,7.49206-1.40509,1.108-2.19665,3.60517-2.19665,5.30329a7.63226,7.63226,0,0,0,2.19665,5.30328,7.54651,7.54651,0,0,0,5.30335,2.19672,8.73842,8.73842,0,0,0,5.30328-2.19672c.15393-.12134.30969-.2431.46478-.36524q.70212-.53393,1.41181-1.05841,1.49706-1.10577,3.027-2.166,3.03059-2.099,6.19257-3.99951a98.78089,98.78089,0,0,1,11.2851-5.82013,76.79764,76.79764,0,0,1,17.48327-4.88843,60.19908,60.19908,0,0,1,13.38928-.07977,51.17119,51.17119,0,0,1,11.457,3.10522,46.78632,46.78632,0,0,1,4.90381,2.58179q1.45881.88641,2.848,1.88116c.12958.09278.41816.30866.66541.49366q.35211.28609.69818.57959a44.70748,44.70748,0,0,1,4.72528,4.647q.5148.58749,1.00891,1.19281c.04956.06073.098.12231.14679.18371q.95371,1.28971,1.81635,2.64331a46.8158,46.8158,0,0,1,3.10943,5.78644,51.40944,51.40944,0,0,1,3.08545,11.42865,60.098,60.098,0,0,1-.07586,13.34772,75.69743,75.69743,0,0,1-4.83283,17.28564,100.5209,100.5209,0,0,1-9.7207,17.19642q-.79605,1.13946-1.61914,2.25976-.38508.52424-.77594,1.04425c-.101.1344-.43878.57642-.6225.81769-.40552.51843-.80408,1.0357-1.19989,1.55969q-.32355.42847-.64655.85748-.74826.99033-1.50122,1.97712-.63747.83559-1.27838,1.66864l-.01574.0205q-.25151.325-.50367.64936-1.352,1.73849-2.71869,3.46563-9.79541,12.37895-20.32806,24.14881c-5.46051,6.10712-11.06647,12.08063-16.7395,17.99017-4.07672,4.24671-8.21594,8.43982-12.18048,12.79248-2.80573,3.08032-5.82062,6.31085-7.78955,10.009-2.11127,3.96551-2.94916,8.7387-.34,12.72375,2.48682,3.7981,6.83026,5.54456,11.11334,6.43665a122.75033,122.75033,0,0,0,16.89008,1.93573c8.14734.53961,16.30926.85907,24.46588,1.21978,11.5614.51129,23.1214,1.05072,34.67578,1.70368q5.04355.285,10.08551.59607c3.92334.24182,7.67365-3.62238,7.5-7.5A7.674,7.674,0,0,0,851.84982,537.17611Z" transform="translate(-106.42751 -120.52679)" fill="#2f2e41"/><path d="M1007.98431,436.3971c-13.86914-.85474-27.747-1.543-41.62847-2.16083-9.35431-.41638-18.71717-.75794-28.06025-1.38959-3.27887-.22174-6.55883-.4848-9.81988-.899-.855-.12548-1.71314-.26617-2.56415-.43975.12494-.1551.24835-.31147.37524-.465.67066-.81171,1.36054-1.60736,2.05994-2.39435,3.70056-4.16394,7.6192-8.13415,11.48175-12.14642,5.4455-5.6565,10.8487-11.35327,16.12085-17.17224q10.28265-11.349,19.9057-23.27216,2.72379-3.38013,5.391-6.80536,1.86621-2.39639,3.71363-4.80743.69679-.9095,1.38952-1.8219.32263-.42482.64435-.85034c.21076-.27863,1.13184-1.4856.46283-.62378q.59309-.76667,1.18512-1.53424.40072-.52094.79718-1.045.91-1.20648,1.78949-2.43561,1.58614-2.21794,3.06464-4.51019a100.68877,100.68877,0,0,0,5.14593-8.94238c5.82208-11.4707,9.63373-24.15137,9.555-37.10162a58.105,58.105,0,0,0-8.66461-30.78559,52.31573,52.31573,0,0,0-23.0119-19.87481,62.22454,62.22454,0,0,0-17.29541-4.66218,66.19863,66.19863,0,0,0-17.42767.40015c-13.2359,1.83466-25.92859,7.48822-37.03046,14.78912-3.53882,2.32728-6.92139,4.87012-10.24622,7.49207-1.40509,1.108-2.19665,3.60516-2.19665,5.30328a7.63231,7.63231,0,0,0,2.19665,5.30329,7.54648,7.54648,0,0,0,5.30335,2.19671,8.73833,8.73833,0,0,0,5.30328-2.19671c.15393-.12134.3097-.24311.46479-.36524q.70211-.53392,1.4118-1.05841,1.49708-1.10577,3.027-2.166,3.03057-2.099,6.19256-3.99951a98.78011,98.78011,0,0,1,11.2851-5.82013,76.79764,76.79764,0,0,1,17.48327-4.88843,60.19857,60.19857,0,0,1,13.38929-.07977,51.17148,51.17148,0,0,1,11.457,3.10522,46.7883,46.7883,0,0,1,4.90381,2.58179q1.4588.88641,2.848,1.88116c.12957.09278.41815.30866.6654.49365q.35211.28611.69818.57959a44.70759,44.70759,0,0,1,4.72528,4.647q.5148.58749,1.00892,1.19281c.04956.06073.098.12231.14678.18371q.95371,1.2897,1.81635,2.64331a46.81649,46.81649,0,0,1,3.10944,5.78644A51.40983,51.40983,0,0,1,993.6424,299.691a60.098,60.098,0,0,1-.07587,13.34772,75.69771,75.69771,0,0,1-4.83283,17.28564,100.52043,100.52043,0,0,1-9.7207,17.19641q-.79605,1.13948-1.61914,2.25977-.38507.52423-.77594,1.04425c-.101.1344-.43878.57642-.6225.81769-.40551.51843-.80407,1.0357-1.19989,1.55969q-.32355.42846-.64654.85748-.74826.99033-1.50122,1.97711-.63749.8356-1.27838,1.66865l-.01575.0205q-.25151.325-.50366.64936-1.35205,1.73848-2.71869,3.46563-9.79542,12.37894-20.32807,24.14881c-5.46051,6.10711-11.06646,12.08062-16.7395,17.99017-4.07672,4.2467-8.21594,8.43982-12.18048,12.79248-2.80572,3.08032-5.82062,6.31085-7.78955,10.009-2.11127,3.96552-2.94916,8.73871-.34,12.72376,2.48682,3.79809,6.83026,5.54455,11.11335,6.43664a122.74692,122.74692,0,0,0,16.89007,1.93573c8.14734.53962,16.30927.85907,24.46588,1.21979,11.5614.51129,23.1214,1.05072,34.67578,1.70368q5.04355.285,10.08551.59607c3.92334.24182,7.67365-3.62238,7.5-7.5A7.674,7.674,0,0,0,1007.98431,436.3971Z" transform="translate(-106.42751 -120.52679)" fill="#2f2e41"/></svg>